<?xml version="1.0" encoding="utf-8"?>
<!-- Generator: Adobe Illustrator 23.0.1, SVG Export Plug-In . SVG Version: 6.00 Build 0)  -->
<svg version="1.1" id="Layer_1" xmlns="http://www.w3.org/2000/svg" xmlns:xlink="http://www.w3.org/1999/xlink" x="0px" y="0px"
	 viewBox="0 0 300 214" style="enable-background:new 0 0 300 214;" xml:space="preserve">
<style type="text/css">
	.st0{fill:#9112FF;}
	.st1{fill:#D35400;}
	.st2{fill:#F7931E;}
	.st3{fill:#EB974E;}
	.st4{fill:#42210B;}
</style>
<g>
	<g>
		<polygon class="st0" points="145.28,189.5 220.07,59.95 70.48,59.95 		"/>
		<path class="st0" d="M53.05,50.06l92.22,159.74L237.5,50.06H53.05z M146.28,192.39c-0.21,0.36-0.59,0.58-1,0.58
			c-0.41,0-0.8-0.22-1-0.58L67.47,59.37c-0.21-0.36-0.21-0.8,0-1.16c0.21-0.36,0.59-0.58,1-0.58h153.6c0.41,0,0.8,0.22,1,0.58
			c0.21,0.36,0.21,0.8,0,1.16L146.28,192.39z"/>
	</g>
	<g>
		<polygon class="st1" points="297.6,75.19 291.86,75.19 264.19,117.88 291.86,158.81 297.6,158.81 269.93,117.88 		"/>
		<polygon class="st1" points="8.58,75.19 2.84,75.19 32.48,117.78 2.84,158.81 8.58,158.81 38.23,117.78 		"/>
		<polygon class="st2" points="291.86,75.19 8.58,75.19 38.23,117.78 8.58,158.81 291.86,158.81 264.19,117.88 		"/>
	</g>
	<g>
		<path class="st1" d="M202.15,46.62H86.43c-9.69,0-14.88-11.57-8.3-18.67c6-6.48,14.33-11.99,24.26-16.09
			c4.9-2.03,10.2-3.71,15.8-4.98c2.53-0.58,5.13-1.07,7.78-1.49c4.37-0.68,8.89-1.11,13.51-1.29c1.59-0.06,3.19-0.1,4.8-0.1
			c0.7,0,1.4,0.01,2.11,0.02c4.16,0.07,8.23,0.35,12.2,0.82c2.13,0.26,4.22,0.56,6.29,0.93c3.84,0.68,7.56,1.53,11.13,2.56
			c1.96,0.56,3.87,1.18,5.73,1.83c3.54,1.25,6.91,2.67,10.07,4.25c7.47,3.73,13.81,8.32,18.65,13.54
			C217.03,35.06,211.83,46.62,202.15,46.62z"/>
		<g>
			<path class="st3" d="M118.19,6.88l-10.75,17.35c-2.11,3.4-5.72,4.69-8.07,2.86l-0.09-0.06c-2.35-1.82-2.54-6.06-0.43-9.47
				l3.53-5.7C107.29,9.83,112.59,8.15,118.19,6.88z"/>
			<g>
				<path class="st3" d="M139.48,4.1l-12.48,20.13c-2.11,3.4-5.72,4.69-8.07,2.86l-0.09-0.06c-2.35-1.82-2.54-6.06-0.43-9.47
					l7.54-12.17C130.34,4.71,134.86,4.28,139.48,4.1z"/>
			</g>
			<g>
				<path class="st3" d="M158.59,4.84l-12.01,19.38c-2.11,3.4-5.72,4.69-8.07,2.86l-0.08-0.06c-2.35-1.82-2.54-6.06-0.43-9.47
					l8.39-13.54C150.55,4.09,154.62,4.37,158.59,4.84z"/>
			</g>
			<g>
				<path class="st3" d="M176,8.32l-9.86,15.9c-2.11,3.4-5.72,4.69-8.06,2.86L158,27.02c-2.35-1.82-2.54-6.06-0.43-9.47l7.31-11.79
					C168.72,6.44,172.43,7.3,176,8.32z"/>
			</g>
			<g>
				<path class="st3" d="M191.8,14.41l-6.08,9.81c-2.11,3.4-5.72,4.69-8.06,2.86l-0.09-0.06c-2.35-1.82-2.54-6.06-0.43-9.47
					l4.59-7.4C185.27,11.41,188.64,12.83,191.8,14.41z"/>
			</g>
		</g>
	</g>
	
		<ellipse transform="matrix(0.9736 -0.2285 0.2285 0.9736 -25.4133 14.4562)" class="st1" cx="49.73" cy="117" rx="8.44" ry="8.44"/>
	
		<ellipse transform="matrix(0.7071 -0.7071 0.7071 0.7071 -9.4405 211.2012)" class="st1" cx="250.22" cy="117" rx="8.44" ry="8.44"/>
	<g>
		<path class="st4" d="M65.09,121.82v-10.56c0-5.05,3.6-8.42,8.99-8.42c5.39,0,8.95,3.4,8.95,8.11v0.38c0,0.31-0.19,0.5-0.5,0.5
			h-1.72c-0.31,0-0.5-0.15-0.5-0.42v-0.42c0-3.4-2.45-5.78-6.24-5.78c-3.75,0-6.27,2.37-6.27,5.97v10.71c0,3.6,2.6,5.97,6.39,5.97
			c3.71,0,6.12-2.18,6.12-5.62v-3.44c0-0.11-0.08-0.19-0.19-0.19h-5.47c-0.31,0-0.5-0.19-0.5-0.5v-1.38c0-0.31,0.19-0.5,0.5-0.5
			h7.88c0.31,0,0.5,0.19,0.5,0.5v4.82c0,5.55-3.56,8.68-8.95,8.68C68.69,130.23,65.09,126.83,65.09,121.82z"/>
		<path class="st4" d="M104.23,129.54l-5.59-11.78c-0.04-0.08-0.15-0.15-0.23-0.15h-6.39c-0.11,0-0.19,0.08-0.19,0.19v11.63
			c0,0.31-0.19,0.5-0.5,0.5h-1.72c-0.31,0-0.5-0.19-0.5-0.5v-25.82c0-0.31,0.19-0.5,0.5-0.5h9.79c4.4,0,7.34,2.95,7.34,7.35
			c0,3.63-2.1,6.2-5.36,6.96c-0.15,0.04-0.15,0.11-0.12,0.23l5.7,11.71c0.15,0.34,0,0.57-0.38,0.57h-1.76
			C104.57,129.93,104.34,129.77,104.23,129.54z M91.83,105.67v9.56c0,0.12,0.08,0.19,0.19,0.19h7.08c2.95,0,4.97-1.99,4.97-4.93
			c0-2.98-2.03-5.01-4.97-5.01h-7.08C91.91,105.48,91.83,105.56,91.83,105.67z"/>
		<path class="st4" d="M129.36,129.51l-1.53-4.67c-0.04-0.08-0.08-0.15-0.19-0.15h-11.4c-0.11,0-0.15,0.08-0.19,0.15l-1.49,4.67
			c-0.08,0.31-0.27,0.42-0.54,0.42h-1.84c-0.34,0-0.54-0.23-0.42-0.57l8.42-25.78c0.08-0.31,0.27-0.42,0.54-0.42h2.45
			c0.27,0,0.46,0.11,0.54,0.42l8.45,25.78c0.12,0.34-0.08,0.57-0.42,0.57h-1.84C129.63,129.93,129.44,129.81,129.36,129.51z
			 M117.04,122.47h9.83c0.11,0,0.19-0.08,0.15-0.23l-4.97-15.65c-0.04-0.19-0.19-0.19-0.23,0l-4.93,15.65
			C116.85,122.39,116.93,122.47,117.04,122.47z"/>
		<path class="st4" d="M137.17,129.43v-25.78c0-0.31,0.19-0.5,0.5-0.5h1.8c0.27,0,0.42,0.11,0.57,0.34l7,11.06
			c0.08,0.15,0.15,0.15,0.23,0l7.04-11.06c0.15-0.23,0.31-0.34,0.57-0.34h1.8c0.31,0,0.5,0.19,0.5,0.5v25.78
			c0,0.31-0.19,0.5-0.5,0.5h-1.72c-0.31,0-0.5-0.19-0.5-0.5v-21.12c0-0.19-0.15-0.19-0.23-0.04l-6.04,9.56
			c-0.15,0.23-0.31,0.34-0.57,0.34h-0.88c-0.27,0-0.42-0.11-0.57-0.34l-6.04-9.56c-0.08-0.15-0.23-0.15-0.23,0.04v21.12
			c0,0.31-0.19,0.5-0.5,0.5h-1.72C137.36,129.93,137.17,129.74,137.17,129.43z"/>
		<path class="st4" d="M164.37,129.43v-25.78c0-0.31,0.19-0.5,0.5-0.5h1.8c0.27,0,0.42,0.11,0.57,0.34l7,11.06
			c0.08,0.15,0.15,0.15,0.23,0l7.04-11.06c0.15-0.23,0.31-0.34,0.57-0.34h1.8c0.31,0,0.5,0.19,0.5,0.5v25.78
			c0,0.31-0.19,0.5-0.5,0.5h-1.72c-0.31,0-0.5-0.19-0.5-0.5v-21.12c0-0.19-0.15-0.19-0.23-0.04l-6.04,9.56
			c-0.15,0.23-0.31,0.34-0.57,0.34h-0.88c-0.27,0-0.42-0.11-0.57-0.34l-6.04-9.56c-0.08-0.15-0.23-0.15-0.23,0.04v21.12
			c0,0.31-0.19,0.5-0.5,0.5h-1.72C164.56,129.93,164.37,129.74,164.37,129.43z"/>
		<path class="st4" d="M197.46,129.39v-11.21c0-0.08-0.04-0.15-0.08-0.23l-7.84-14.19c-0.19-0.34-0.04-0.61,0.34-0.61h1.84
			c0.27,0,0.46,0.11,0.57,0.34l6.39,11.55c0.08,0.11,0.15,0.11,0.23,0l6.43-11.55c0.11-0.23,0.31-0.34,0.57-0.34h1.84
			c0.38,0,0.54,0.27,0.34,0.61l-7.84,14.19c-0.04,0.08-0.08,0.15-0.08,0.23v11.21c0,0.31-0.19,0.5-0.5,0.5h-1.72
			C197.65,129.89,197.46,129.7,197.46,129.39z"/>
		<path class="st4" d="M214.79,103.72l-2.75,6.89c-0.11,0.27-0.31,0.38-0.57,0.38h-1.19c-0.34,0-0.54-0.23-0.42-0.57l2.22-6.85
			c0.08-0.31,0.27-0.42,0.54-0.42h1.8C214.75,103.15,214.9,103.38,214.79,103.72z"/>
		<path class="st4" d="M217.2,123.08v-1.07c0-0.31,0.19-0.5,0.5-0.5h1.64c0.31,0,0.5,0.19,0.5,0.5v0.92c0,2.87,2.56,4.94,6.77,4.94
			c4.02,0,6.01-1.87,6.01-4.55c0-2.72-2.07-3.98-7.04-6.04c-4.59-1.84-8-3.25-8-7.65c0-4.32,3.21-6.77,8.42-6.77
			c5.66,0,9.1,2.91,9.1,7.27v0.73c0,0.31-0.19,0.5-0.5,0.5h-1.68c-0.31,0-0.5-0.19-0.5-0.5v-0.57c0-2.87-2.3-5.05-6.58-5.05
			c-3.6,0-5.59,1.53-5.59,4.32c0,2.87,2.14,3.79,6.77,5.59c4.71,1.91,8.3,3.71,8.3,8.07c0,4.17-3.21,7.04-8.91,7.04
			C220.76,130.23,217.2,127.4,217.2,123.08z"/>
	</g>
</g>
</svg>
